Coordinates
version=1
nRows=20
nColumns=63
inDegrees=yes

Units are S.I. units (second, meters, Newtons, ...)
If the header above contains a line with 'inDegrees', this indicates whether rotational values are in degrees (yes) or radians (no).

endheader
time	pelvis_tilt	pelvis_list	pelvis_rotation	pelvis_tx	pelvis_ty	pelvis_tz	hip_flexion_r	hip_adduction_r	hip_rotation_r	knee_angle_r	knee_angle_r_beta	ankle_angle_r	subtalar_angle_r	mtp_angle_r	hip_flexion_l	hip_adduction_l	hip_rotation_l	knee_angle_l	knee_angle_l_beta	ankle_angle_l	subtalar_angle_l	mtp_angle_l	L5_S1_Flex_Ext	L5_S1_Lat_Bending	L5_S1_axial_rotation	L4_L5_Flex_Ext	L4_L5_Lat_Bending	L4_L5_axial_rotation	L3_L4_Flex_Ext	L3_L4_Lat_Bending	L3_L4_axial_rotation	L2_L3_Flex_Ext	L2_L3_Lat_Bending	L2_L3_axial_rotation	L1_L2_Flex_Ext	L1_L2_Lat_Bending	L1_L2_axial_rotation	L1_T12_Flex_Ext	L1_T12_Lat_Bending	L1_T12_axial_rotation	Abs_r3	Abs_r2	Abs_r1	Abs_t1	Abs_t2	neck_flexion	neck_bending	neck_rotation	arm_flex_r	arm_add_r	arm_rot_r	elbow_flex_r	pro_sup_r	wrist_flex_r	wrist_dev_r	arm_flex_l	arm_add_l	arm_rot_l	elbow_flex_l	pro_sup_l	wrist_flex_l	wrist_dev_l
0.000000	-2.032024	-4.580062	99.305025	0.288858	0.846371	0.759081	-2.214287	0.416466	-16.037797	0.259470	0.004529	29.110556	14.122204	0.000000	4.420465	1.790307	19.242753	7.624922	0.133080	28.950634	-12.920621	0.000000	0.052688	0.029070	-1.439623	0.097846	0.038663	-1.529599	0.086561	0.070681	-1.529599	0.060217	0.070681	-1.259670	0.048926	0.059279	-1.169694	0.030106	0.045029	-1.079717	0.376343	0.328845	-8.006751	0.000000	0.000000	24.847880	-6.688184	-5.756294	14.318575	-3.425093	46.069152	37.392584	84.235283	6.991132	10.210912	15.995038	-0.236497	50.231755	36.144171	59.777863	-3.649117	9.668112
0.016949	-2.111935	-4.172947	97.899059	0.290373	0.846624	0.756436	-2.616657	0.278699	-15.096653	0.437662	0.007639	29.101217	14.465269	0.000000	3.252148	1.688596	19.131572	6.835576	0.119303	28.204530	-14.214565	0.000000	0.037930	0.029367	-1.191804	0.070440	0.039058	-1.266292	0.062315	0.071403	-1.266292	0.043350	0.071403	-1.042829	0.035222	0.059885	-0.968341	0.021673	0.045489	-0.893853	0.270930	0.332204	-6.628458	0.000000	0.000000	24.273163	-6.312248	-5.490961	14.389997	-3.693529	47.870637	36.917074	85.994979	6.646143	9.370320	16.327244	-0.239564	53.600090	35.582458	69.259009	-4.370712	8.518788
0.033898	-2.167010	-3.864379	96.722434	0.291652	0.846806	0.754404	-2.886349	0.170102	-14.330384	0.615436	0.010741	29.138110	14.787171	0.000000	2.336468	1.594997	18.995545	6.163162	0.107567	27.631762	-15.251817	0.000000	0.027104	0.030694	-0.980737	0.050334	0.040823	-1.042033	0.044529	0.074629	-1.042033	0.030977	0.074629	-0.858145	0.025168	0.062591	-0.796849	0.015487	0.047545	-0.735553	0.193599	0.347216	-5.454564	0.000000	0.000000	23.857930	-5.987188	-5.290802	14.398163	-3.896838	49.080081	36.542772	87.314153	6.343792	8.770644	16.651792	-0.202158	56.584126	35.044704	76.181572	-4.939490	7.533878
0.050847	-2.199739	-3.645681	95.760610	0.292712	0.846924	0.752928	-3.036990	0.088227	-13.727051	0.791057	0.013807	29.214347	15.086749	0.000000	1.650473	1.509232	18.843894	5.598254	0.097708	27.214487	-16.056573	0.000000	0.019845	0.032951	-0.804808	0.036854	0.043825	-0.855109	0.032603	0.080118	-0.855109	0.022681	0.080118	-0.704207	0.018428	0.067194	-0.653907	0.011339	0.051042	-0.603606	0.141751	0.372752	-4.476101	0.000000	0.000000	23.582580	-5.707612	-5.144934	14.350796	-4.041242	49.765070	36.260862	88.204272	6.076265	8.395274	16.964656	-0.130751	59.196633	34.536027	80.837986	-5.366590	6.705031
0.067797	-2.212608	-3.508175	94.999045	0.293568	0.846982	0.751952	-3.082211	0.030627	-13.274713	0.962791	0.016804	29.323038	15.362839	0.000000	1.171208	1.431019	18.685841	5.131427	0.089560	26.934864	-16.653027	0.000000	0.015790	0.036039	-0.662406	0.029324	0.047932	-0.703806	0.025942	0.087625	-0.703806	0.018047	0.087625	-0.579605	0.014663	0.073491	-0.538205	0.009023	0.055824	-0.496804	0.112788	0.407679	-3.684103	0.000000	0.000000	23.427512	-5.468127	-5.042472	14.255618	-4.132963	49.993187	36.062526	88.676805	5.835745	8.227598	17.261813	-0.031814	61.450378	34.061545	83.520682	-5.663152	6.023897
0.084746	-2.208107	-3.443184	94.423200	0.294237	0.846987	0.751419	-3.035640	-0.005142	-12.961431	1.128904	0.019703	29.457296	15.614281	0.000000	0.875720	1.360079	18.530610	4.753256	0.082960	26.775050	-17.065376	0.000000	0.014576	0.039857	-0.551918	0.027068	0.053010	-0.586413	0.023946	0.096908	-0.586413	0.016658	0.096908	-0.482928	0.013535	0.081276	-0.448433	0.008329	0.061738	-0.413938	0.104112	0.450869	-3.069602	0.000000	0.000000	23.373124	-5.263343	-4.972533	14.120352	-4.178224	49.832019	35.938947	88.743217	5.614418	8.251005	17.539238	0.088182	63.358133	33.626375	84.522095	-5.840317	5.482125
0.101695	-2.188725	-3.442029	94.018532	0.294733	0.846944	0.751272	-2.910908	-0.021528	-12.775266	1.287662	0.022474	29.610231	15.839913	0.000000	0.741055	1.296134	18.387423	4.454317	0.077742	26.717203	-17.317813	0.000000	0.015837	0.044305	-0.471732	0.029412	0.058926	-0.501215	0.026019	0.107724	-0.501215	0.018101	0.107724	-0.412766	0.014707	0.090347	-0.383282	0.009049	0.068629	-0.353799	0.113125	0.501191	-2.623632	0.000000	0.000000	23.399815	-5.087867	-4.924233	13.952721	-4.183249	49.349150	35.881306	88.414978	5.404468	8.448883	17.792907	0.222765	64.932665	33.235635	84.134657	-5.909225	5.071364
0.118644	-2.156949	-3.496034	93.770502	0.295074	0.846860	0.751455	-2.721643	-0.020976	-12.704278	1.437330	0.025086	29.774955	16.038573	0.000000	0.744259	1.238902	18.265502	4.225183	0.073743	26.743480	-17.434533	0.000000	0.019212	0.049284	-0.420236	0.035678	0.065548	-0.446501	0.031563	0.119830	-0.446501	0.021957	0.119830	-0.367706	0.017840	0.100501	-0.341442	0.010978	0.076341	-0.315177	0.137227	0.557514	-2.337226	0.000000	0.000000	23.487985	-4.936307	-4.886688	13.760447	-4.154259	48.612165	35.880787	87.703555	5.198080	8.804621	18.018797	0.365464	66.186745	32.894443	82.650802	-5.881015	4.783263
0.135593	-2.115268	-3.596520	93.664569	0.295274	0.846740	0.751910	-2.481475	-0.005934	-12.736528	1.576175	0.027509	29.944579	16.209100	0.000000	0.862378	1.188105	18.174070	4.056429	0.070798	26.836039	-17.439732	0.000000	0.024335	0.054694	-0.395817	0.045192	0.072743	-0.420556	0.039980	0.132982	-0.420556	0.027812	0.132982	-0.346340	0.022597	0.111532	-0.321601	0.013905	0.084721	-0.296863	0.173822	0.618707	-2.201416	0.000000	0.000000	23.618030	-4.803272	-4.849013	13.551253	-4.097477	47.688650	35.928572	86.620416	4.987439	9.301608	18.212882	0.509808	67.133141	32.607917	80.362962	-5.766829	4.609472
0.152542	-2.066171	-3.734810	93.686190	0.295350	0.846591	0.752582	-2.204032	0.021153	-12.860075	1.702463	0.029714	30.112215	16.350330	0.000000	1.072460	1.143463	18.122350	3.938632	0.068742	26.977037	-17.357605	0.000000	0.030843	0.060434	-0.396863	0.057279	0.080377	-0.421667	0.050672	0.146939	-0.421667	0.035251	0.146939	-0.347256	0.028641	0.123237	-0.322452	0.017624	0.093612	-0.297648	0.220310	0.683641	-2.207235	0.000000	0.000000	23.770352	-4.683370	-4.800325	13.332863	-4.019127	46.646189	36.015843	85.177028	4.764729	9.923231	18.371139	0.649325	67.784623	32.381175	77.563572	-5.577806	4.541639
0.169492	-2.012145	-3.902226	93.820827	0.295318	0.846418	0.753412	-1.902946	0.057838	-13.062981	1.814459	0.031668	30.270974	16.461104	0.000000	1.351549	1.104695	18.119564	3.862365	0.067411	27.148633	-17.212347	0.000000	0.038373	0.066405	-0.421763	0.071262	0.088318	-0.448123	0.063043	0.161457	-0.448123	0.043856	0.161457	-0.369042	0.035633	0.135413	-0.342682	0.021926	0.102861	-0.316322	0.274092	0.751184	-2.345718	0.000000	0.000000	23.925347	-4.571209	-4.729740	13.112998	-3.925430	45.552368	36.133782	83.384859	4.522135	10.652880	18.489542	0.777545	68.153960	32.219334	74.545064	-5.325086	4.571414
0.186441	-1.954632	-4.081453	94.047586	0.295179	0.846214	0.754273	-1.618747	0.098986	-13.332198	1.906222	0.033270	30.368213	16.522399	0.000000	1.647623	1.077235	18.243801	3.826693	0.066788	27.267260	-17.184270	0.000000	0.047334	0.073803	-0.469965	0.087905	0.098158	-0.499338	0.077766	0.179444	-0.499338	0.054099	0.179444	-0.411219	0.043955	0.150498	-0.381847	0.027047	0.114320	-0.352474	0.338106	0.834871	-2.613805	0.000000	0.000000	23.979756	-4.441567	-4.555950	12.911161	-3.843859	44.692493	36.223894	81.032551	4.189098	11.579245	18.631958	0.839284	68.678505	32.116538	73.601438	-5.166527	4.528703
0.203390	-1.888145	-4.264603	94.417484	0.294913	0.845989	0.755187	-1.344709	0.159715	-13.642068	1.989862	0.034730	30.434498	16.450215	0.000000	1.993612	1.038634	18.291698	3.881521	0.067745	27.501078	-16.802763	0.000000	0.054809	0.082044	-0.554318	0.101786	0.109118	-0.588962	0.090046	0.199481	-0.588962	0.062641	0.199481	-0.485028	0.050896	0.167304	-0.450383	0.031318	0.127086	-0.415738	0.391495	0.928096	-3.082948	0.000000	0.000000	23.981957	-4.317186	-4.311336	12.740484	-3.762153	44.020757	36.343557	78.029337	3.822125	12.701437	18.689378	0.866430	68.785850	32.122480	72.425325	-4.941943	4.693678
0.220339	-1.841450	-4.460434	94.816622	0.294652	0.845745	0.755985	-1.088087	0.204584	-14.059048	2.037740	0.035565	30.488317	16.497297	0.000000	2.291493	1.020756	18.631701	3.860408	0.067377	27.584289	-16.755934	0.000000	0.064989	0.087644	-0.654250	0.120690	0.116567	-0.695140	0.106770	0.213098	-0.695140	0.074275	0.213098	-0.572469	0.060348	0.178724	-0.531578	0.037134	0.135761	-0.490687	0.464207	0.991448	-3.638742	0.000000	0.000000	23.914125	-4.181653	-4.003883	12.572346	-3.659685	43.493720	36.463570	74.758171	3.402609	13.842402	18.572641	0.878313	68.176264	32.248239	71.884096	-4.563701	5.138208
0.237288	-1.802039	-4.639833	95.254164	0.294394	0.845533	0.756717	-0.868469	0.249111	-14.496851	2.060167	0.035957	30.520767	16.528663	0.000000	2.545018	1.003037	19.058101	3.818704	0.066649	27.608956	-16.740418	0.000000	0.072319	0.092240	-0.768705	0.134304	0.122679	-0.816749	0.118813	0.224272	-0.816749	0.082654	0.224272	-0.672617	0.067156	0.188096	-0.624573	0.041323	0.142880	-0.576529	0.516570	1.043436	-4.275307	0.000000	0.000000	23.789383	-4.016230	-3.651536	12.446244	-3.569268	43.198019	36.589445	71.334671	2.921370	14.940466	18.385569	0.856684	67.207327	32.445297	71.792231	-4.059113	5.688572
0.254237	-1.766094	-4.806430	95.730748	0.294119	0.845363	0.757358	-0.681097	0.295551	-14.963006	2.060153	0.035956	30.534243	16.544569	0.000000	2.757388	0.983122	19.561693	3.755260	0.065542	27.573136	-16.754786	0.000000	0.078487	0.096658	-0.895489	0.145759	0.128556	-0.951457	0.128947	0.235015	-0.951457	0.089703	0.235015	-0.783553	0.072883	0.197106	-0.727585	0.044848	0.149724	-0.671617	0.560627	1.093418	-4.980442	0.000000	0.000000	23.597894	-3.827332	-3.266361	12.359872	-3.498922	43.103410	36.728925	67.840391	2.384416	15.966828	18.148494	0.817321	65.973044	32.701616	72.445959	-3.484123	6.247954
0.271186	-1.737580	-4.958379	96.210845	0.293842	0.845239	0.757894	-0.525433	0.338142	-15.378333	2.040655	0.035616	30.529149	16.487967	0.000000	2.920804	0.963500	20.097919	3.659816	0.063876	27.478757	-16.790325	0.000000	0.083484	0.100780	-1.026817	0.155039	0.134037	-1.090993	0.137156	0.245036	-1.090993	0.095414	0.245036	-0.898465	0.077524	0.205511	-0.834288	0.047703	0.156108	-0.770112	0.596320	1.140043	-5.710846	0.000000	0.000000	23.358194	-3.600055	-2.856313	12.324558	-3.457633	43.179096	36.870901	64.558886	1.840116	16.800253	17.917059	0.766400	64.733422	33.003530	73.452855	-2.925328	6.745436
0.288136	-1.724850	-5.088520	96.710148	0.293526	0.845161	0.758306	-0.418239	0.369793	-15.761873	1.993767	0.034798	30.500975	16.355044	0.000000	3.034077	0.954825	20.677398	3.544040	0.061855	27.333162	-16.849760	0.000000	0.085801	0.103868	-1.166712	0.159342	0.138145	-1.239631	0.140963	0.252546	-1.239631	0.098062	0.252546	-1.020873	0.079675	0.211808	-0.947953	0.049027	0.160892	-0.875034	0.612870	1.174980	-6.488900	0.000000	0.000000	23.107438	-3.351940	-2.454721	12.341452	-3.435414	43.365975	37.023105	61.575080	1.297436	17.371690	17.610290	0.715190	63.167683	33.413654	74.713962	-2.345259	7.217153
0.305085	-1.725790	-5.198090	97.174489	0.293258	0.845138	0.758632	-0.343474	0.390112	-16.061069	1.941205	0.033880	30.454714	16.128217	0.000000	3.097414	0.950959	21.243118	3.397623	0.059300	27.136863	-16.935611	0.000000	0.085636	0.105809	-1.295948	0.159035	0.140725	-1.376944	0.140692	0.257263	-1.376944	0.097874	0.257263	-1.133954	0.079522	0.215765	-1.052957	0.048933	0.163897	-0.971961	0.611692	1.196927	-7.207672	0.000000	0.000000	22.852979	-3.039028	-2.054430	12.392786	-3.431106	43.546966	37.196780	58.925044	0.766079	17.683181	17.369564	0.691873	61.817110	33.842034	76.200407	-2.086478	7.381529
0.322034	-1.751271	-5.291413	97.583164	0.293050	0.845153	0.758834	-0.297350	0.385596	-16.263960	1.888309	0.032957	30.398518	15.823565	0.000000	3.121489	0.963557	21.739760	3.234552	0.056454	26.930942	-16.997601	0.000000	0.084552	0.105524	-1.414101	0.157022	0.140347	-1.502482	0.138911	0.256570	-1.502482	0.096635	0.256570	-1.237338	0.078515	0.215184	-1.148957	0.048313	0.163456	-1.060576	0.603948	1.193706	-7.864806	0.000000	0.000000	22.603876	-2.683055	-1.664968	12.491501	-3.441927	43.778726	37.379353	56.525192	0.269593	17.676402	17.082416	0.682078	60.237064	34.369188	77.810904	-2.043276	7.341581
